# xmcd CD database file
#
# Track frame offsets:
#	150
#	15993
#	31180
#	45571
#	73198
#	99887
#	113179
#	128648
#	139598
#	156799
#	176404
#	188855
#	201234
#	218571
#	231712
#	249765
#	264225
#	285883
#	310829
#	328715
#
# Disc length: 4574 seconds
#
# Revision: 1
# Processed by: cddbd v1.5.2PL0 Copyright (c) Steve Scherf et al.
# Submitted via: CDex 1.70beta2
#
DISCID=0911dc14
DTITLE=Jazz in Paris - Disc 3 - 'Round Midnight
DYEAR=1900
DGENRE=Jazz
TTITLE0=Sacha Distel Quartet - 'Round Midnight
TTITLE1=Quintette du Hot Club de France - September Song
TTITLE2=Georges Arvanitas Quintet - La Bride sur le cou
TTITLE3=Sonny Criss Quartet - God Bless the Child
TTITLE4=Joe Newman Quintet - Lover Man
TTITLE5=Blossom Dearie Trio - The Surrey with the Fringe on the Top
TTITLE6=Art Simmons Quartet - My Funny Valentine
TTITLE7=elek Bacsik - Over the Rainbow
TTITLE8=Jean-Luc ponty Quartet - I Want to Talk about You
TTITLE9=Peanuts Holland and son Orchestre - That's my Desire
TTITLE10=Michel de Villers and son Orchestre - The Foolish Things
TTITLE11=Dizzy Gillespie Quintet - Blue and Sentimental
TTITLE12=Barney Wilen - Mélodie pour les radios taxis
TTITLE13=Don Byas Quintet - Georgia on my Mind
TTITLE14=Lucky Thompson Quartet - Lullaby of the Leaves
TTITLE15=Mary Lou Williams - There's a small Hotel
TTITLE16=René Thomas Quartet - My old Flame
TTITLE17=Toots Thielemans Quartet - Willow Weep for Me
TTITLE18=Bobby Jaspar Quartet - Autumn in New York
TTITLE19=Lester Young Quintet - I Can't Get Started
EXTD=
EXTT0=
EXTT1=
EXTT2=
EXTT3=
EXTT4=
EXTT5=
EXTT6=
EXTT7=
EXTT8=
EXTT9=
EXTT10=
EXTT11=
EXTT12=
EXTT13=
EXTT14=
EXTT15=
EXTT16=
EXTT17=
EXTT18=
EXTT19=
PLAYORDER=
